<?xml version="1.0" encoding="UTF-8"?>
<svg id="Layer_1" data-name="Layer 1" xmlns="http://www.w3.org/2000/svg" viewBox="0 0 1000 681.47">
  <defs>
    <style>
      .cls-1 {
        fill: #a0cb4d;
      }

      .cls-1, .cls-2, .cls-3, .cls-4 {
        stroke-width: 0px;
      }

      .cls-2 {
        fill: #48b55c;
      }

      .cls-3 {
        fill: #4f2f19;
      }

      .cls-4 {
        fill: #784724;
      }
    </style>
  </defs>
  <g>
    <g>
      <path class="cls-4" d="m276.76,345.45c-7.53,0-13.54-1.91-18.03-5.73-4.49-3.82-6.74-8.99-6.74-15.5,0-5.17,1.29-9.38,3.88-12.64,2.58-3.26,5.78-5.87,9.6-7.83,3.82-1.96,7.95-3.65,12.38-5.06,4.44-1.4,8.65-2.67,12.64-3.79,3.99-1.12,7.25-2.61,9.77-4.47,2.53-1.85,3.79-4.18,3.79-6.99l.51,8.42c-.56,2.14-1.8,3.9-3.71,5.31-1.91,1.41-4.07,2.78-6.49,4.13-2.42,1.35-4.75,2.78-6.99,4.3-2.25,1.52-4.16,3.37-5.73,5.56-1.57,2.19-2.36,5.14-2.36,8.85,0,3.93.98,6.91,2.95,8.93,1.96,2.02,4.8,3.03,8.51,3.03,2.7,0,5.28-.7,7.75-2.11,2.47-1.4,4.66-3.62,6.57-6.66v6.91c-3.15,5.17-7.08,9.02-11.8,11.54-4.72,2.53-10.22,3.79-16.51,3.79Zm26.96-46v-21.74c0-6.18-1.26-10.59-3.79-13.23-2.53-2.64-6.43-3.96-11.71-3.96-3.71,0-6.66.48-8.85,1.43-2.19.96-3.29,2.39-3.29,4.3,0,1.24.48,2.56,1.43,3.96.95,1.41,1.88,2.87,2.78,4.38.9,1.52,1.35,3.17,1.35,4.97,0,2.7-1.18,4.89-3.54,6.57-2.36,1.69-5.34,2.53-8.93,2.53-4.16,0-7.44-1.07-9.86-3.2-2.42-2.13-3.62-5.17-3.62-9.1,0-4.72,1.6-8.76,4.8-12.13,3.2-3.37,7.72-6.01,13.56-7.92,5.84-1.91,12.69-2.86,20.56-2.86,12.47,0,21.45,2.75,26.96,8.26,5.5,5.51,8.26,14.49,8.26,26.96v10.78h-26.12Zm26.12,29.49c0,2.47.39,4.24,1.18,5.31.78,1.07,2.02,1.6,3.71,1.6,1.35,0,2.75-.31,4.21-.93,1.46-.62,2.86-1.43,4.21-2.44l2.7,5.73c-2.81,2.25-6.21,4.02-10.19,5.31-3.99,1.29-8.34,1.94-13.06,1.94-6.52,0-11.29-1.29-14.32-3.88-3.03-2.58-4.55-6.63-4.55-12.13v-29.99h26.12v29.49Z"/>
      <path class="cls-4" d="m368.42,299.45v-23.76c0-4.6-.7-7.81-2.11-9.6-1.41-1.8-4.19-2.92-8.34-3.37l-3.88-.34v-6.57c2.58.11,5.03.2,7.33.25,2.3.06,4.91.08,7.84.08,4.94,0,9.49-.2,13.65-.59,4.15-.39,8.03-.93,11.63-1.6v45.5h-26.12Zm-.76,43.3c-4.21.11-8.74.23-13.56.34v-6.57l4.04-.34c4.15-.34,6.91-1.4,8.26-3.2,1.35-1.8,2.02-4.89,2.02-9.27v-24.26h26.12v24.26c0,4.49.67,7.64,2.02,9.44,1.35,1.8,3.65,2.86,6.91,3.2l2.02.17v6.57c-4.27-.11-8.23-.22-11.88-.34-3.65-.11-7.67-.17-12.05-.17-5.05,0-9.69.06-13.9.17Zm57.21-43.3v-18.03c0-5.5-1.07-9.6-3.2-12.3-2.14-2.7-5.51-4.04-10.11-4.04s-8.51,1.6-12.05,4.8c-3.54,3.2-6.77,8.12-9.69,14.74l-1.85-2.53c3.82-10.11,8.65-17.41,14.49-21.9,5.84-4.49,12.81-6.74,20.89-6.74,9.1,0,15.98,2.53,20.64,7.58,4.66,5.06,6.99,12.53,6.99,22.41v16.01h-26.12Zm1.6,43.3c-3.65.11-7.67.23-12.05.34v-6.57l1.85-.17c3.37-.34,5.67-1.4,6.91-3.2,1.23-1.8,1.85-4.94,1.85-9.44v-24.26h26.12v24.26c0,4.49.65,7.64,1.94,9.44,1.29,1.8,3.62,2.86,6.99,3.2l1.85.17v6.57c-4.49-.11-8.54-.22-12.13-.34-3.6-.11-7.47-.17-11.63-.17s-8.06.06-11.71.17Zm55.02-43.3v-18.03c0-5.5-1.12-9.6-3.37-12.3-2.25-2.7-5.79-4.04-10.62-4.04s-8.76,1.49-12.47,4.47c-3.71,2.98-7.02,7.89-9.94,14.74l-2.19-4.89c3.71-8.87,8.65-15.42,14.83-19.63,6.18-4.21,13.48-6.32,21.9-6.32,9.1,0,16.03,2.53,20.81,7.58,4.77,5.06,7.16,12.53,7.16,22.41v16.01h-26.12Zm1.18,43.3c-3.71.11-7.64.23-11.8.34v-6.57l1.68-.17c3.48-.34,5.81-1.4,6.99-3.2,1.18-1.8,1.77-4.94,1.77-9.44v-24.26h26.12v24.26c0,4.38.76,7.47,2.27,9.27,1.52,1.8,4.41,2.87,8.68,3.2l4.21.34v6.57c-5.17-.11-9.89-.22-14.15-.34-4.27-.11-8.93-.17-13.99-.17-4.16,0-8.09.06-11.8.17Z"/>
      <path class="cls-4" d="m533.22,299.45v-23.76c0-4.6-.7-7.81-2.11-9.6-1.41-1.8-4.19-2.92-8.34-3.37l-3.88-.34v-6.57c2.58.11,5.03.2,7.33.25,2.3.06,4.91.08,7.84.08,4.94,0,9.49-.2,13.65-.59,4.15-.39,8.03-.93,11.63-1.6v45.5h-26.12Zm-.76,82.23c-4.21.11-8.74.22-13.56.34v-6.57l4.04-.34c4.15-.34,6.91-1.41,8.26-3.2,1.35-1.8,2.02-4.89,2.02-9.27v-63.19h26.12v63.19c0,3.03.45,5.33,1.35,6.91.9,1.57,2.33,2.78,4.3,3.62,1.96.84,4.74,1.49,8.34,1.94l6.07.34v6.57c-3.93-.11-7.67-.2-11.2-.25-3.54-.06-7.05-.11-10.53-.17-3.48-.06-7.25-.08-11.29-.08-5.05,0-9.69.06-13.9.17Zm51.98-128.23c7.19,0,13.42,1.83,18.7,5.48,5.28,3.65,9.35,8.85,12.22,15.59,2.86,6.74,4.3,14.89,4.3,24.43s-1.57,17.69-4.72,24.77c-3.15,7.08-7.72,12.47-13.73,16.18-6.01,3.71-13.12,5.56-21.32,5.56-5.51,0-10.31-.93-14.41-2.78-4.1-1.85-7.27-4.3-9.52-7.33l1.35-5.73c1.35,2.25,3.26,4.02,5.73,5.31,2.47,1.29,5.39,1.94,8.76,1.94,6.85,0,11.96-3.09,15.33-9.27,3.37-6.18,5.06-15.5,5.06-27.97,0-11.8-1.46-20.67-4.38-26.62-2.92-5.95-7.36-8.93-13.31-8.93-3.6,0-6.85,1.1-9.77,3.29-2.92,2.19-5.11,5.37-6.57,9.52l-1.52-4.72c2.13-6.18,5.62-10.84,10.45-13.99,4.83-3.14,10.62-4.72,17.36-4.72Z"/>
      <path class="cls-4" d="m668.69,255.81v43.64h-26.12v-23.76c0-4.6-.73-7.81-2.19-9.6-1.46-1.8-4.27-2.92-8.42-3.37l-4.04-.34v-6.57c2.81.11,5.33.2,7.58.25,2.25.06,4.77.08,7.58.08,5.17,0,9.83-.2,13.99-.59,4.15-.39,8.03-.93,11.63-1.6v1.85Zm0,43.64v18.37c0,5.28,1.12,9.27,3.37,11.96,2.25,2.7,5.5,4.04,9.77,4.04,4.6,0,8.76-1.6,12.47-4.8,3.71-3.2,6.96-8.17,9.77-14.91l1.69,2.53c-3.71,10.11-8.48,17.44-14.32,21.99-5.84,4.55-12.86,6.82-21.06,6.82-8.88,0-15.73-2.53-20.56-7.58-4.83-5.05-7.25-12.47-7.25-22.24v-16.18h26.12Zm56.45-43.64v43.64h-26.12v-23.76c0-4.49-.67-7.69-2.02-9.6-1.35-1.91-3.99-2.92-7.92-3.03l-2.53-.67v-6.57c2.58.11,4.94.2,7.08.25,2.13.06,4.44.08,6.91.08,4.83,0,9.27-.2,13.31-.59,4.04-.39,7.81-.93,11.29-1.6v1.85Zm-26.12,87.28v-43.64h26.12v23.76c0,4.61.76,7.81,2.27,9.6,1.52,1.8,4.41,2.92,8.68,3.37l3.71.34v6.57c-2.59-.11-5.03-.19-7.33-.25-2.3-.06-4.92-.08-7.83-.08-5.06,0-9.66.2-13.82.59-4.16.39-8.09.93-11.8,1.6v-1.85Z"/>
      <path class="cls-4" d="m762.55,299.45v-23.76c0-4.6-.7-7.81-2.11-9.6-1.41-1.8-4.19-2.92-8.34-3.37l-3.88-.34v-6.57c2.58.11,5.03.2,7.33.25,2.3.06,4.91.08,7.84.08,4.94,0,9.49-.2,13.65-.59,4.15-.39,8.03-.93,11.63-1.6v45.5h-26.12Zm-.76,43.3c-4.21.11-8.74.23-13.56.34v-6.57l4.04-.34c4.15-.34,6.91-1.4,8.26-3.2,1.35-1.8,2.02-4.89,2.02-9.27v-24.26h26.12v24.26c0,4.49.67,7.61,2.02,9.35,1.35,1.74,3.71,2.78,7.08,3.12l2.19.34v6.57c-4.49-.11-8.57-.22-12.22-.34-3.65-.11-7.67-.17-12.05-.17-5.05,0-9.69.06-13.9.17Zm58.39-43.3v-17.86c0-5.5-1.12-9.63-3.37-12.39-2.25-2.75-5.67-4.13-10.28-4.13s-8.93,1.55-12.64,4.63c-3.71,3.09-6.97,8.12-9.77,15.08l-1.85-2.7c3.82-10.11,8.68-17.41,14.58-21.9,5.9-4.49,12.95-6.74,21.15-6.74,9.32,0,16.37,2.56,21.15,7.67,4.77,5.11,7.16,12.72,7.16,22.83v15.5h-26.12Zm1.26,43.3c-3.65.11-7.61.23-11.88.34v-6.57l1.69-.17c3.48-.34,5.84-1.4,7.08-3.2,1.23-1.8,1.85-4.94,1.85-9.44v-24.26h26.12v24.26c0,4.38.73,7.47,2.19,9.27,1.46,1.8,4.27,2.87,8.42,3.2l4.04.34v6.57c-4.83-.11-9.41-.22-13.73-.34-4.33-.11-9.01-.17-14.07-.17-4.16,0-8.06.06-11.71.17Z"/>
    </g>
    <path class="cls-4" d="m908.45,433.49c-17.65,0-31.48-2.86-41.49-8.57-10-5.72-15-13.28-15.01-22.7,0-7.56,3.07-14.29,9.21-20.17,6.14-5.89,15-10.76,26.61-14.63l6.3,3.78c-4.2,2.86-7.53,6.47-9.96,10.84-2.44,4.37-3.66,9.16-3.66,14.38,0,8.74,2.9,15.51,8.7,20.3,5.8,4.79,14.16,7.19,25.09,7.19,8.4,0,15.85-1.39,22.32-4.16,6.47-2.77,11.6-6.56,15.38-11.35,3.78-4.79,5.67-10.38,5.67-16.77,0-5.72-1.93-10.09-5.8-13.11-3.87-3.03-9.58-4.54-17.15-4.54h-26.73c-10.76,0-19.42-2.1-25.97-6.3-6.56-4.2-9.83-9.75-9.83-16.64,0-6.05,2.06-11.56,6.18-16.52,4.12-4.96,10.38-9.79,18.79-14.5l8.57,1.26c-3.37,2.36-5.67,4.5-6.94,6.43-1.26,1.94-1.89,4.08-1.89,6.43,0,3.37,1.43,5.93,4.29,7.69,2.86,1.77,7.14,2.65,12.86,2.65h27.49c14.79,0,26.02,2.94,33.67,8.83,7.65,5.89,11.47,14.54,11.47,25.98,0,10.93-3.28,20.38-9.83,28.37-6.56,7.98-15.68,14.29-27.36,18.91-11.69,4.62-25.34,6.93-40.98,6.93Zm5.3-110.96c-16.48,0-29.38-3.66-38.71-10.97-9.33-7.31-14-17.44-14-30.39,0-13.28,4.67-23.58,14-30.89,9.33-7.31,22.23-10.97,38.71-10.97,16.31,0,29,3.62,38.08,10.85,9.08,7.23,13.62,17.57,13.62,31.02,0,13.11-4.54,23.29-13.62,30.51-9.08,7.23-21.77,10.84-38.08,10.84Zm0-9.58c6.72,0,11.76-2.6,15.13-7.82,3.36-5.21,5.04-13.2,5.04-23.96,0-11.1-1.68-19.29-5.04-24.59-3.37-5.3-8.32-7.94-14.88-7.94-6.73,0-11.77,2.65-15.13,7.94-3.37,5.3-5.04,13.49-5.04,24.59,0,10.93,1.68,18.96,5.04,24.08,3.36,5.13,8.32,7.69,14.88,7.69Zm73.89-38.84c-3.36,0-5.84-1.13-7.44-3.4-1.6-2.27-2.9-4.83-3.91-7.69-1.01-2.86-2.02-5.38-3.03-7.57-1.01-2.18-2.44-3.28-4.29-3.28-1.01,0-2.44.55-4.29,1.64-1.85,1.1-3.74,2.69-5.67,4.79-1.94,2.11-3.66,4.58-5.17,7.44l-4.79-7.31c3.53-5.88,8.23-10.59,14.12-14.12,5.88-3.53,11.85-5.3,17.9-5.3,5.88,0,10.5,1.6,13.87,4.79,3.36,3.2,5.04,7.65,5.04,13.37,0,4.71-1.13,8.66-3.4,11.85-2.27,3.2-5.26,4.79-8.95,4.79Z"/>
    <path class="cls-4" d="m106.09,410.56c-6.27,0-12.59.05-18.95.15-6.37.1-12.39.2-18.05.3-5.66.1-10.51.26-14.56.45v-11.83l10.01-.61c5.86-.61,10.46-1.72,13.8-3.34,3.34-1.62,5.56-4.14,6.67-7.58,1.11-3.44,1.67-8.29,1.67-14.56v-138.9c0-6.67-.56-11.62-1.67-14.86-1.11-3.23-3.34-5.56-6.67-6.98-3.34-1.41-7.94-2.63-13.8-3.64l-10.01-.61v-11.83c4.04,0,8.89.1,14.56.3,5.66.2,11.68.36,18.05.46,6.37.1,12.68.15,18.95.15h6.67c5.86,0,11.62-.05,17.29-.15,5.66-.1,10.92-.25,15.77-.46,4.85-.2,8.99-.3,12.43-.3v11.83l-6.37.3c-8.29,1.42-13.5,3.69-15.62,6.82-2.12,3.14-3.18,9.45-3.18,18.95v138.9c0,9.51,1.06,15.82,3.18,18.95,2.12,3.14,7.33,5.41,15.62,6.82l6.37.3v11.83c-3.44-.2-7.58-.35-12.43-.45-4.85-.1-10.11-.2-15.77-.3-5.66-.1-11.43-.15-17.29-.15h-6.67Zm186.68,29.02c10.99,11.19,19.29,14.04,33.75,20.05v9.96c-11.86-.08-25.59-1.81-42.04-8.35-42.14-16.75-62.8-53.63-70.93-71.95-6.23-14.05-12.45-28.11-18.86-42.08l-1.27-2.77c-4.65-9.1-9-16.17-13.04-21.23-4.05-5.05-8.79-8.64-14.25-10.77-5.46-2.12-12.33-3.18-20.62-3.18h-20.32v-11.83h20.93c5.25,0,10.01-.65,14.25-1.97,4.25-1.31,8.24-3.38,11.98-6.22,3.74-2.83,7.63-6.77,11.68-11.83l20.02-23.35c7.48-8.49,11.87-16.02,13.19-22.59,1.31-6.57,0-11.93-3.94-16.07-3.94-4.14-10.57-6.42-19.86-6.82v-11.83c7.48.2,15.06.41,22.75.61,7.68.2,15.47.3,23.35.3,6.67,0,13.24-.1,19.71-.3,6.47-.2,14.05-.4,22.75-.61v11.83c-7.69,1.82-14.31,3.94-19.86,6.37-5.56,2.43-10.82,5.76-15.77,10.01-4.96,4.25-10.46,9.81-16.53,16.68l-46.4,54.89.61-9.1c8.69,1.42,16.12,3.94,22.29,7.58,6.17,3.64,11.88,8.64,17.14,15.01,5.25,6.37,10.31,15.01,15.16,25.93l17.59,37c9.81,21.74,19.85,49.61,36.56,66.63Z"/>
    <path class="cls-4" d="m353.66,557.95c-5.91,0-11.86.05-17.86.14-6,.1-11.67.19-17.01.29-5.34.1-9.91.24-13.72.43v-11.15l9.43-.57c5.52-.57,9.86-1.62,13.01-3.14,3.14-1.52,5.24-3.9,6.29-7.15,1.04-3.24,1.57-7.81,1.57-13.72v-130.91c0-6.29-.53-10.96-1.57-14.01-1.05-3.05-3.14-5.24-6.29-6.57-3.14-1.33-7.48-2.47-13.01-3.43l-9.43-.57v-11.15c3.81,0,8.38.1,13.72.29,5.33.19,11,.33,17.01.43,6,.1,11.96.14,17.86.14h6.29c5.52,0,10.96-.04,16.29-.14,5.33-.09,10.29-.24,14.86-.43,4.57-.19,8.48-.29,11.72-.29v11.15l-6,.29c-7.82,1.34-12.72,3.48-14.72,6.43-2,2.96-3,8.91-3,17.86v130.91c0,8.96,1,14.91,3,17.86,2,2.96,6.9,5.1,14.72,6.43l6,.29v11.15c-3.24-.19-7.15-.33-11.72-.43-4.57-.09-9.53-.19-14.86-.29-5.34-.09-10.77-.14-16.29-.14h-6.29Zm265.96,31.93c77.2,8.79,140.5-39.45,150.27-47.35l4.21,5.83c-9.79,9.4-76.5,68.84-164.28,64.93-25.73-1.15-48.48-6.96-68.16-15.04-47-19.31-84.5-56.38-105.67-102.57l-.02-.04c-4.39-8.58-8.48-15.24-12.29-20.01-3.81-4.76-8.29-8.15-13.43-10.15-5.14-2-11.62-3-19.44-3h-19.15v-11.15h19.72c4.95,0,9.43-.62,13.43-1.86,4-1.24,7.76-3.19,11.29-5.86,3.52-2.67,7.19-6.38,11-11.15l18.86-22.01c7.05-8,11.19-15.1,12.43-21.29,1.24-6.19,0-11.24-3.72-15.15-3.72-3.9-9.96-6.05-18.72-6.43v-11.15c7.05.19,14.19.38,21.44.57,7.24.19,14.58.29,22.01.29,6.29,0,12.48-.09,18.58-.29,6.1-.19,13.24-.38,21.44-.57v11.15c-7.24,1.71-13.48,3.72-18.72,6-5.24,2.29-10.2,5.43-14.86,9.43-4.67,4-9.86,9.24-15.58,15.72l-43.73,51.73.57-8.58c8.19,1.34,15.19,3.72,21.01,7.15,5.81,3.43,11.19,8.15,16.15,14.15,4.95,6,9.72,14.15,14.29,24.44l.38.8c25.86,54.39,77.09,92.89,136.77,100.95,1.29.17,2.6.34,3.91.49Z"/>
    <g>
      <path class="cls-4" d="m567.62,437.59v60.03h-32.11v-32.34c0-6.51-1.16-11.01-3.49-13.49-2.33-2.48-6.51-4.11-12.56-4.89l-6.05-.23v-9.07c3.57.16,6.78.27,9.66.35,2.87.08,6.24.12,10.12.12,6.82,0,13.03-.27,18.61-.81,5.58-.54,10.86-1.36,15.82-2.44v2.79Zm-.23,60.03v24.2c0,7.91,1.7,13.96,5.12,18.15,3.41,4.19,8.22,6.28,14.43,6.28,7.13,0,13.38-2.36,18.73-7.1,5.35-4.73,9.96-11.9,13.84-21.52l2.33,3.95c-4.97,13.81-11.44,23.85-19.43,30.13-7.99,6.28-17.72,9.42-29.2,9.42-12.1,0-21.45-3.53-28.04-10.59-6.59-7.06-9.89-17.49-9.89-31.29v-21.64h32.11Zm77.48-60.03v60.03h-32.11v-32.34c0-6.51-1.05-11.01-3.14-13.49-2.09-2.48-5.86-4.03-11.28-4.65l-3.96-.47v-9.07c3.41.16,6.47.27,9.19.35,2.71.08,5.54.12,8.49.12,6.67,0,12.68-.27,18.03-.81,5.35-.54,10.27-1.36,14.77-2.44v2.79Zm-32.11,120.05v-60.03h32.11v32.11c0,6.36,1.12,10.82,3.37,13.38,2.25,2.56,6.47,4.3,12.68,5.23l6.05.23v9.07c-3.57-.15-6.83-.27-9.77-.35-2.95-.08-6.21-.12-9.77-.12-6.98,0-13.3.27-18.96.81-5.66.54-10.9,1.28-15.7,2.21v-2.56Z"/>
      <path class="cls-4" d="m736.3,560.91c-11.79,0-21.95-2.52-30.48-7.56-8.53-5.04-15.16-12.25-19.89-21.64-4.73-9.38-7.1-20.74-7.1-34.09s2.44-24.89,7.33-34.2c4.89-9.31,11.75-16.52,20.59-21.64,8.84-5.12,19.31-7.68,31.41-7.68,11.01,0,20.32,2.02,27.92,6.05,7.6,4.04,13.41,10.24,17.45,18.61,4.03,8.38,5.82,19.23,5.35,32.57h-87.02v-9.07h58.17c.31-7.6-.31-14.31-1.86-20.13-1.55-5.82-3.99-10.47-7.33-13.96-3.34-3.49-7.64-5.24-12.91-5.24-6.36,0-11.95,3.34-16.75,10-4.81,6.67-7.6,17.06-8.38,31.18l.47.93c-.16,1.09-.31,2.48-.47,4.19-.16,1.71-.23,3.65-.23,5.82,0,15.51,2.98,27.61,8.96,36.3,5.97,8.69,14.39,13.03,25.24,13.03,7.75,0,14.46-1.9,20.13-5.7,5.66-3.8,10.51-9.65,14.54-17.57l8.38,4.65c-4.5,11.48-11.36,20.21-20.59,26.18-9.23,5.97-20.21,8.96-32.92,8.96Z"/>
    </g>
  </g>
  <g>
    <path class="cls-3" d="m50.48,357c-4.14,15.11-8.72,28.78-11.59,42.79-16.62,81.24,11.8,144.81,83.12,187.34,41.66,24.84,87.18,38.79,134.48,47.46,76.66,14.05,153.79,15.04,230.99,5.78,31.27-3.75,62.25-10.03,93.36-15.14.66-.11,1.35-.01,3.95-.01-3.77,1.92-5.89,3.12-8.11,4.12-51.6,23.13-105.71,37.47-161.51,45.74-44.27,6.56-88.73,8.26-133.34,4.24-74.73-6.74-144.84-28.02-208-69.07C27.92,580.4,1.04,538.24.03,482.41c-.83-45.96,14.23-86.62,45.29-120.96,1.22-1.34,2.76-2.39,5.16-4.45Z"/>
    <path class="cls-3" d="m925.47,210.92c-30.55-8.46-58.92-17.16-87.73-24.1-53.46-12.89-107.91-18.58-162.86-19.53-130.96-2.27-257.76,20.63-381.3,63.15-1.26.43-2.55.78-4.39.11,3.2-1.91,6.38-3.87,9.62-5.72,80.56-46.21,166.79-75.79,259.13-86.2,113.4-12.79,222.77,2.13,326.61,51.13,13.39,6.32,26.33,13.59,40.93,21.17Z"/>
  </g>
  <g>
    <path class="cls-2" d="m795.03,59.21c-26.41,15.3-42.89,41.14-47.24,69.12,7.67-19.99,21.95-37.59,41.92-49.16,46.38-26.87,105.75-11.05,132.62,35.33,11.57,19.97,15.2,42.34,11.91,63.5,10.14-26.44,8.7-57.05-6.59-83.46-26.87-46.38-86.24-62.19-132.62-35.33Z"/>
    <path class="cls-2" d="m831.59,122.32c-9.06,5.25-13.4,15.5-11.6,25.24,1.74-2.05,3.82-3.85,6.28-5.28,11.52-6.67,26.27-2.75,32.94,8.78,1.42,2.46,2.34,5.06,2.82,7.7,6.41-7.56,7.75-18.6,2.49-27.67-6.67-11.52-21.42-15.45-32.94-8.78Z"/>
    <g>
      <path class="cls-2" d="m805.08,111.58c-1.92,3.2-4.93,4.92-6.73,3.84-1.79-1.08-1.69-4.54.23-7.74,1.92-3.2,4.93-4.92,6.73-3.84s1.69,4.54-.23,7.74Z"/>
      <path class="cls-2" d="m819.79,101.29c-3.69-.58-6.41-2.73-6.08-4.79.33-2.07,3.58-3.27,7.26-2.69,3.69.58,6.41,2.73,6.08,4.79-.33,2.07-3.58,3.27-7.26,2.69Z"/>
      <path class="cls-2" d="m840.08,106.62c-3.52-1.25-5.8-3.86-5.1-5.83.7-1.97,4.12-2.56,7.63-1.31,3.52,1.25,5.8,3.86,5.1,5.83-.7,1.97-4.12,2.56-7.63,1.31Z"/>
      <path class="cls-2" d="m851.62,87.27c-3.28-1.77-5.14-4.7-4.15-6.54.99-1.84,4.46-1.9,7.74-.13,3.28,1.77,5.14,4.7,4.15,6.54-.99,1.84-4.46,1.9-7.74.13Z"/>
      <path class="cls-2" d="m787.12,125.06c-.06,3.73-1.81,6.73-3.91,6.69-2.09-.04-3.74-3.09-3.67-6.82.07-3.73,1.81-6.73,3.91-6.69,2.09.04,3.74,3.09,3.67,6.82Z"/>
      <path class="cls-2" d="m826.12,83.94c-3.52-1.25-5.8-3.86-5.1-5.83.7-1.97,4.12-2.56,7.63-1.31,3.52,1.25,5.8,3.86,5.1,5.83-.7,1.97-4.12,2.56-7.63,1.31Z"/>
      <path class="cls-2" d="m798.69,94.87c-2.68,2.59-6.04,3.47-7.49,1.97-1.45-1.51-.46-4.83,2.23-7.42,2.68-2.59,6.04-3.47,7.49-1.97,1.45,1.51.46,4.83-2.23,7.42Z"/>
      <path class="cls-2" d="m882.92,121.67c-2.99-2.23-4.39-5.4-3.14-7.08,1.25-1.68,4.69-1.22,7.68,1.01,2.99,2.23,4.39,5.4,3.14,7.08s-4.69,1.22-7.68-1.01Z"/>
      <path class="cls-2" d="m891.68,137.34c.95-3.61,3.36-6.1,5.38-5.57,2.02.53,2.89,3.89,1.95,7.5-.95,3.61-3.36,6.1-5.38,5.57-2.02-.53-2.89-3.89-1.95-7.5Z"/>
      <path class="cls-2" d="m884.32,156.99c1.6-3.37,4.43-5.38,6.32-4.48,1.89.9,2.13,4.36.53,7.73-1.6,3.37-4.43,5.38-6.32,4.48-1.89-.9-2.13-4.36-.53-7.73Z"/>
      <path class="cls-2" d="m902.41,170.43c2.09-3.09,5.19-4.64,6.93-3.47,1.73,1.17,1.44,4.63-.65,7.72-2.09,3.09-5.19,4.64-6.93,3.47-1.73-1.17-1.44-4.63.65-7.72Z"/>
      <path class="cls-2" d="m871.32,102.44c-3.71-.44-6.51-2.48-6.26-4.56.25-2.08,3.45-3.4,7.16-2.96,3.7.44,6.51,2.48,6.26,4.56-.25,2.08-3.45,3.4-7.16,2.96Z"/>
      <path class="cls-2" d="m908.3,145.39c1.6-3.37,4.43-5.38,6.32-4.48,1.89.9,2.13,4.36.53,7.73-1.6,3.37-4.43,5.38-6.32,4.48-1.89-.9-2.13-4.36-.53-7.73Z"/>
      <path class="cls-2" d="m900.19,116.99c-2.31-2.93-2.85-6.36-1.2-7.65,1.64-1.29,4.85.03,7.16,2.96,2.31,2.93,2.85,6.36,1.2,7.65-1.64,1.29-4.85-.03-7.16-2.96Z"/>
    </g>
  </g>
  <g>
    <path class="cls-1" d="m607.59,119.2c-2.83.07-5.62.18-8.45.32-1.29-2.81-2.13-5.88-2.46-9.14-.77-7.61,1.37-14.81,5.49-20.34.16,1.02.39,2.01.66,2.93.6,2.42,1.46,4.74,2.57,6.9-.7,3-.93,6.21-.59,9.51.36,3.57,1.32,6.84,2.79,9.82Z"/>
    <path class="cls-1" d="m621.57,102.21c-.76,1.54-1.42,3.09-2.05,4.66-5.19-3.64-8.99-9.22-10.63-15.69-.61-2.18-.93-4.49-.97-6.87-.03-1.56.07-3.22.3-4.84,1.23-8.61,6.04-15.72,12.54-19.81-.11.78-.19,1.55-.24,2.3-.15,2.33-.08,4.67.25,6.99-2.18,3.27-3.71,7.13-4.37,11.35-.07.17-.07.34-.11.51-.11.84-.2,1.69-.25,2.5-.44,7,1.66,13.69,5.53,18.9Z"/>
    <path class="cls-1" d="m645.9,37.5c-.26.5-.49,1.01-.73,1.54-1.13,2.65-1.94,5.41-2.42,8.18-2.5,2.38-4.61,5.35-6.1,8.84-.1.2-.17.44-.27.64-.17.44-.33.87-.5,1.28-2.52,7.13-2.16,14.69.55,21.19-1.06,1.23-2.1,2.46-3.07,3.76-4.68-5.53-7.08-12.97-6.59-20.52.11-1.93.43-3.85.95-5.77.31-1.18.71-2.36,1.18-3.5,3.29-8.06,9.7-13.57,16.99-15.64Z"/>
    <path class="cls-1" d="m670.72,24.39c-.59.94-1.11,1.91-1.6,2.91-1.02,2.18-1.86,4.43-2.45,6.76-1.31.92-2.53,1.98-3.68,3.17-.42.36-.8.79-1.16,1.23-.45.5-.87,1.03-1.29,1.6-4.47,6-6.24,13.38-5.46,20.44-1.43.98-2.81,2.04-4.18,3.12-3.16-7.32-3.21-15.93,0-23.42.83-1.84,1.81-3.65,3.04-5.32.07-.1.16-.23.23-.33,4.31-5.8,10.26-9.25,16.56-10.16Z"/>
    <path class="cls-1" d="m699.42,15.46c-.87.83-1.64,1.72-2.32,2.66-1.52,1.9-2.82,3.97-3.88,6.18-2.12.83-4.16,2.01-6.04,3.52,0,.03-.03.03-.03.03-.83.66-1.63,1.39-2.37,2.11-4.85,4.9-7.61,11.52-8.05,18.32-1.39.58-2.76,1.19-4.12,1.84-1.57-6.64-.82-13.71,2.08-19.78,1.02-2.11,2.29-4.08,3.84-5.88,1.13-1.36,2.38-2.59,3.79-3.71,5.15-4.05,11.21-5.78,17.1-5.3Z"/>
    <path class="cls-1" d="m733.54,17.04c-.99.86-1.92,1.75-2.73,2.65-.8.83-1.55,1.73-2.2,2.66-4.41-.81-9.06-.38-13.56,1.52l-.03.03c-1.14.45-2.22,1.03-3.24,1.65-6.11,3.72-10.4,9.89-12.16,16.87-1.32.24-2.62.52-3.88.83-.4-7.16,1.83-14.22,6.1-19.62,1.49-1.97,3.29-3.69,5.3-5.13,1.53-1.15,3.19-2.1,4.96-2.83,7.29-3.09,15.06-2.33,21.44,1.37Z"/>
    <path class="cls-1" d="m770.4,25.17c-.92.22-1.8.47-2.69.75-1.83.6-3.61,1.41-5.3,2.39-3.45-1.3-7.21-1.79-11.11-1.3-2.71.31-5.27,1.1-7.62,2.27-.79.35-1.56.78-2.29,1.27-4.39,2.68-7.94,6.73-10.22,11.56-1.13-.09-2.29-.15-3.42-.18.8-6.05,3.43-11.58,7.39-15.76,1.13-1.26,2.41-2.38,3.78-3.34,3.32-2.47,7.25-4.07,11.5-4.58,7.59-.91,14.74,1.83,19.96,6.93Z"/>
    <path class="cls-1" d="m797.91,43.57c-2.09,1-4.13,2.04-6.16,3.21-.15-.17-.34-.31-.52-.45-3.24-2.62-7.12-4.4-11.4-5.11-.5-.08-1-.16-1.5-.17-.84-.12-1.66-.14-2.48-.12-6.59-.02-12.75,2.79-17.37,7.43-1.34-.44-2.71-.84-4.08-1.21,3.16-6.57,8.68-11.49,15.16-13.68,1.77-.6,3.6-1,5.52-1.2,1.95-.16,3.96-.08,5.99.24,7.07,1.14,13,5.31,16.86,11.06Z"/>
    <path class="cls-1" d="m622.98,119.58c11.23-28.19,38.71-54.93,72.34-63.84,9.81-2.6,19.74-3.91,29.52-3.91,15.97,0,34.1,5.12,47.05,11.79-2.09,2.08-4.06,4.22-5.87,6.38-12.46-3.94-26.76-10.33-40.08-10.33-10.05,0-19.64,1.19-28.5,3.53-26.84,7.1-51.34,30.36-67.39,56.27-2.12.01-4.77.07-7.06.12Z"/>
    <path class="cls-1" d="m662.78,87.07l4.26,2.98c11.58,8.1,11.36,28.85,11.35,29.73l-15.61-32.71Z"/>
    <path class="cls-1" d="m680.96,76l4.19,2.93c16.52,11.56,15.8,41.44,15.76,42.71l-19.96-45.64Z"/>
    <path class="cls-1" d="m706.47,69.97l4.29,3c21.08,14.75,19.44,49.13,19.36,50.58l-23.65-53.59Z"/>
    <path class="cls-1" d="m732.05,69.71l4.29,3c12.44,8.7,11.48,28.85,11.43,29.7l-15.72-32.71Z"/>
  </g>
  <g>
    <path class="cls-2" d="m611.72,54.07c-2.26,1.61-4.32,3.42-6.19,5.42-39.36-69.4-152.45,11.94-102.41,71.72-2.94.61-5.87,1.29-8.78,1.94-50.08-68.21,71.27-156.23,117.38-79.08Z"/>
    <path class="cls-2" d="m522,127.42c-5.35-7.78-8.09-17.21-7.75-26.67.83-22.49,19.48-35.4,30.37-39.47,4.57-1.7,9.87-2.64,14.93-2.64,6.11,0,14.95,1.35,22.4,7.78,2.39,2.06,8.71,7.53,8.74,15.17,0,.54-.03,1.12-.11,1.7-.42,3.45-2.27,6.91-5.07,9.53-2.28,2.21-5.07,3.71-8.07,4.36-.91.19-1.83.28-2.73.28-5.36,0-9.57-3.4-12.65-5.89-2.77-2.2-4.96-3.94-7.26-3.94-.28,0-.56.03-.83.08-4.52.85-9.13,7.88-9.31,14.2-.3,10.65,12.6,17.44,16.56,19.27.21.09.42.18.63.27-1.58.18-3.13.37-4.66.56-3.05.36-6.14.79-9.21,1.23-5.46-4.31-11.65-11.46-11.36-21.6.27-9.6,6.78-20.99,16.04-22.66.76-.14,1.5-.2,2.21-.2,4.91,0,8.8,3.14,11.93,5.66,3.07,2.42,5.28,4.16,7.94,4.16.4,0,.8-.04,1.21-.12,3.24-.67,6.33-3.62,6.64-6.31.32-2.35-1.52-5.22-5.61-8.74-5.64-4.89-12.61-5.92-17.45-5.92-4.2,0-8.46.76-12.3,2.2-2.47.94-24.1,9.75-24.9,31.41-.32,8.92,3.05,17.89,9.15,24.64-3.16.53-6.31,1.08-9.47,1.68Z"/>
    <path class="cls-2" d="m630.15,34.26c-2.32,1.61-4.48,3.48-6.39,5.61-61.98-70.11-194.91.71-145.81,97.34-6.42,1.74-29.17,7.55-36.01,9.36-62.01-118.67,119.9-194.07,188.2-112.31Z"/>
  </g>
  <g>
    <path class="cls-1" d="m410.9,40.98c-3.06-.87-6.06-1.32-8.94-1.32-4.93,0-9.44,1.28-13.4,3.8-3.31-2.07-7.31-3.2-11.47-3.2-1.65,0-3.32.18-4.96.52-3.75.79-6.98,2.43-9.18,4.62-2.15-.83-4.45-1.27-6.76-1.27s-4.79.46-7.08,1.36c-3.78,1.48-6.9,4.01-8.81,7.11-1.14-.24-2.29-.36-3.45-.36-2.33,0-4.68.47-7.01,1.41-4.36,1.74-8.35,5.09-10.83,9-.51-.08-1.04-.1-1.56-.1-1.61,0-3.32.32-5.09.96-5.24,1.93-10.56,6.65-13.23,11.6-5.69.45-10.96,3.57-15.3,9.1-12.62,16.04-18.44,55.08-9.08,97.37,2.22-.05,4.51-.1,6.87-.15l.92-.03c-9.37-40.57-4.35-77.64,7.3-92.46,3.26-4.14,6.87-6.24,10.71-6.24.14,0,.28,0,.42.01.13,0,.24,0,.37.01h.28c1.64.01,3.08-1.04,3.62-2.6.33-1,.91-2.03,1.66-3.06,1.98-2.72,5.14-5.29,8.11-6.38.87-.33,1.71-.5,2.42-.5.61,0,1.13.12,1.55.37.37.23.77.38,1.19.46h.01c.24.05.47.08.73.08.36,0,.73-.05,1.1-.14l.18-.06c1.07-.37,1.92-1.19,2.33-2.24.37-.97.93-1.94,1.64-2.86,1.62-2.16,4.03-4.05,6.53-5.05,1.42-.56,2.81-.86,4.17-.86.93,0,1.84.14,2.7.41.41.13.79.28,1.18.46.51.24,1.07.38,1.65.38s1.13-.13,1.59-.36c1.04-.47,1.79-1.37,2.1-2.47.12-.42.28-.83.5-1.24.98-1.85,2.95-3.53,5.34-4.46,1.39-.54,2.84-.82,4.3-.82,1.15,0,2.29.18,3.38.54.88.27,1.74.65,2.53,1.15.61.38,1.3.58,2.02.58.37,0,.74-.05,1.1-.15l.14-.05c1.02-.37,1.82-1.09,2.24-2.02.12-.26.31-.54.58-.81.97-1.06,2.95-2.2,5.55-2.76,1.13-.23,2.26-.36,3.38-.36,2.1,0,4.08.42,5.84,1.2,1.14.51,2.16,1.16,3.07,1.96.7.61,1.6.95,2.53.95.88,0,1.75-.31,2.42-.86.58-.46,1.16-.89,1.78-1.28h.03c2.71-1.73,5.77-2.6,9.14-2.6,2.16,0,4.49.36,6.9,1.05,4.95,1.42,10.04,4.04,15.12,7.72,1.1-2.26,2.3-4.5,3.61-6.7-5.57-3.96-11.16-6.81-16.63-8.37Z"/>
    <path class="cls-1" d="m310.94,89.03c-1.12,0-2.18-.49-2.91-1.34-2.01-2.36-4.62-4.15-7.55-5.18-.96-.34-1.74-1.03-2.18-1.95-.44-.92-.5-1.96-.16-2.92.54-1.53,1.99-2.55,3.61-2.55.43,0,.86.07,1.27.22,4.19,1.48,7.93,4.04,10.81,7.42,1.37,1.61,1.18,4.03-.43,5.39-.38.32-.82.57-1.3.73-.38.12-.78.19-1.18.19Z"/>
    <path class="cls-1" d="m330.8,80.04c-1.33,0-2.55-.68-3.25-1.81-2.07-3.33-5-6.04-8.49-7.84-1.87-.97-2.61-3.28-1.64-5.15.66-1.28,1.97-2.07,3.4-2.07.61,0,1.22.15,1.76.43,4.71,2.43,8.68,6.1,11.47,10.6.54.86.71,1.89.48,2.88-.23,1-.84,1.84-1.71,2.38-.24.15-.54.29-.85.39-.37.12-.77.18-1.17.18Z"/>
    <path class="cls-1" d="m345.97,71.85c-1.68,0-3.15-1.08-3.65-2.68l-3.45-11.04c-.62-1.99.49-4.13,2.47-4.78l.12-.04c.35-.1.7-.15,1.06-.15,1.68,0,3.14,1.08,3.65,2.68l3.45,11.04c.62,1.99-.48,4.13-2.47,4.78-.41.13-.79.19-1.18.19Z"/>
    <path class="cls-1" d="m364.88,73.52c-1.45,0-2.76-.81-3.41-2.1-3.72-7.36-3.76-16.52-.1-23.91.66-1.32,1.97-2.13,3.43-2.13.59,0,1.17.14,1.7.4.91.45,1.6,1.23,1.92,2.2.33.97.26,2.01-.2,2.92-2.61,5.27-2.59,11.81.07,17.06.95,1.88.2,4.18-1.68,5.14-.19.1-.37.17-.54.22-.39.12-.78.19-1.18.19Z"/>
    <path class="cls-1" d="m383.66,64.75c-1.93,0-3.56-1.44-3.79-3.36-.79-6.41,2.25-13.18,7.57-16.85.64-.44,1.39-.68,2.17-.68,1.26,0,2.43.62,3.15,1.65.58.84.8,1.86.62,2.86-.18,1-.75,1.88-1.59,2.46-3.04,2.1-4.77,5.97-4.32,9.63.22,1.81-.88,3.54-2.61,4.1-.23.07-.47.13-.72.16-.15.02-.31.03-.46.03Z"/>
    <path class="cls-1" d="m310.36,165.41c-1.35.05-2.5-.96-2.62-2.31-1.39-14.77-1.76-26.91-1.11-36.08,1.36-18.97,7.6-25.4,12.59-27.45,1.26-.5,2.6-.79,3.95-.85,3.48-.15,7.04,1.21,10.01,3.83,1.05.93,1.16,2.54.23,3.59-.46.52-1.12.83-1.81.86s-1.29-.2-1.79-.63c-1.98-1.74-4.27-2.65-6.44-2.56-.78.03-1.53.19-2.25.47-3.01,1.23-8.2,5.86-9.44,23.1-.63,8.89-.26,20.74,1.1,35.24.11,1.14-.57,2.22-1.65,2.62-.21.08-.43.13-.65.15h-.15Z"/>
    <path class="cls-1" d="m294.11,114.09c-.53.02-1.04-.12-1.49-.4-.57-.37-.97-.94-1.11-1.6-.14-.67-.02-1.35.35-1.92,2.08-3.22,4.65-6.05,7.66-8.41,3.24-2.55,6.34-3.97,9.47-4.34.32-.04.64-.06.96-.08,3.88-.16,7.53,1.48,9.54,4.29.4.55.55,1.23.44,1.9-.11.67-.48,1.26-1.03,1.65-.17.13-.38.23-.59.32-.25.09-.51.15-.78.16-.86.04-1.68-.36-2.18-1.06-1.02-1.43-3.01-2.26-5.18-2.17-.19,0-.39.02-.59.05-2.18.26-4.44,1.34-6.93,3.29-2.56,2.01-4.76,4.42-6.53,7.17-.45.7-1.2,1.13-2.03,1.16Z"/>
    <path class="cls-1" d="m350.39,99.72c.07.69-.15,1.33-.59,1.85-.47.54-1.12.86-1.83.89-.59.03-1.16-.15-1.61-.49-.05-.02-.1-.07-.15-.1-.17-.15-.37-.32-.6-.44-1.17-.77-2.58-.89-3.54-.86-1.96.08-4.06.92-5.47,2.22-3.27,3-4.21,7.7-4.43,11.11-.27,4.26.37,8.79.92,12.79l8.16,58.88c-1.61.76-3.22,1.53-4.82,2.32l-8.39-60.5c-.6-4.48-1.24-9.1-.96-13.8.17-2.57.62-4.93,1.36-7.07.1-.32.22-.64.34-.94.65-1.66,1.49-3.16,2.5-4.46.2-.29.44-.57.67-.84.39-.44.79-.86,1.23-1.24,2.3-2.1,5.56-3.42,8.71-3.54,1.7-.08,3.29.18,4.72.77.39.13.76.3,1.11.49.64.34,1.24.74,1.8,1.23.54.45.84,1.06.89,1.75Z"/>
    <path class="cls-1" d="m428.38,151.04c-.32.1-.62.2-.94.3-1.33.42-2.64.84-3.96,1.29-3.78-7.47-8.09-15.34-13.06-23.87-3.88-6.65-8.09-13.64-13.24-19.84-5.04-6.09-10.46-10.76-16.13-13.88,1.43-1.01,2.32-2.74,2.17-4.58v-.03c6.36,3.46,12.37,8.58,17.91,15.24,5.44,6.6,9.92,14.06,13.7,20.54,2.55,4.36,4.88,8.48,7.05,12.47,1.01,1.8,1.96,3.57,2.89,5.34,1.28,2.42,2.48,4.75,3.63,7.02Z"/>
    <path class="cls-1" d="m393.75,163.14c-1.59.59-3.17,1.21-4.77,1.81l-24.67-56.22c-1.12-2.55-2.38-5.44-2.77-8.59-.1-.84-.13-1.7-.08-2.55.02-.2.03-.4.05-.6.2-1.9.79-3.63,1.73-5.09.18-.3.4-.59.62-.87.18-.25.39-.47.59-.67,1.86-1.95,4.57-3.09,7.6-3.22.45-.02.92-.02,1.39.02.5.02.99.08,1.48.17.37.05.72.13,1.07.2,1.8.4,3.44,1.06,4.8,1.7-.02.1-.05.2-.05.3,0,.02,0,.03-.02.07-.03.17-.05.34-.05.47-.03.27-.02.47-.02.57.12,1.41-.94,2.64-2.3,2.77l-.22.02c-.2,0-.45-.02-.7-.1-.13-.05-.27-.12-.39-.17l-.17-.05s-.02-.02-.03-.02l-.23-.08h-.02c-1.31-.47-2.42-.7-3.47-.76-.27-.02-.54-.02-.84,0-1.71.07-3.24.67-4.18,1.64-.67.69-1.14,1.64-1.38,2.77v.02l-.05.13v.08c-.15.84-.18,1.73-.07,2.67.29,2.4,1.34,4.82,2.37,7.13l24.77,56.46Z"/>
    <path class="cls-1" d="m369.39,172.93c-1.58.65-3.14,1.33-4.72,2.01-4.04-12.5-11.5-35.77-15.04-48.03-2.85-9.95-3.99-18.11-3.36-24.22.02-.25.05-.49.08-.72.23-1.96.69-3.71,1.34-5.22.15-.37.32-.74.5-1.07,1.14-2.17,2.75-3.74,4.8-4.72,1.12-.52,2.37-.82,3.66-.87,1.9-.08,3.84.35,5.62,1.28.34.17.65.34.96.54,1.26.77,2.3,1.76,3.07,2.9.39.55.52,1.19.42,1.85v.02l-.05.13v.05c-.15.6-.52,1.14-1.04,1.49-.39.27-.84.42-1.31.44-.89.03-1.73-.39-2.23-1.11-.17-.25-.35-.49-.59-.69-.17-.18-.35-.34-.55-.49-1.19-.91-2.67-1.39-4.04-1.34-.65.03-1.24.18-1.76.44-3.93,1.83-6.16,10.67-.62,29.91,3.47,12.08,10.81,34.91,14.85,47.43Z"/>
    <path class="cls-1" d="m415.04,86.44c-.27,1.96-.45,3.93-.59,5.91-9-7.45-16.03-9.63-20.54-10.09h-.1s-.05-.02-.08-.02c-.27-.03-.55-.05-.81-.07l-.03-.02h-.32c-.52-.02-1.01-.02-1.46,0-3.57.15-5.82,1.31-7.1,2.25-1.33.97-2.3,2.22-2.85,3.66-.22.54-.34,1.02-.4,1.44,0,.02,0,.03-.02.07-.02.17-.03.34-.05.47-.03.27-.02.47-.02.57.12,1.41-.94,2.64-2.3,2.77l-.22.02c-.2,0-.45-.02-.7-.1-.2-.08-.39-.15-.55-.22-.02,0-.02-.02-.03-.02-.72-.42-1.19-1.17-1.28-2-.03-.4-.08-1.76.42-3.56.08-.32.18-.67.32-1.02.6-1.7,1.91-4.15,4.65-6.18,1.66-1.23,4.55-2.77,8.98-3.12.25-.02.52-.03.77-.03.02,0,.03-.02.05-.02h.2c1.63-.07,3.32.07,5.09.39.4.05.79.13,1.19.22,5.71,1.21,11.66,4.13,17.79,8.69Z"/>
    <path class="cls-1" d="m420.05,65.75c-.59,1.61-1.12,3.22-1.61,4.85-5.09-2.5-9.03-2.99-11.63-2.89-4.16.18-7.02,1.86-8.22,3.26-1.14,1.38-1.93,3.14-2.33,5.29-.08.45-.15.89-.2,1.28-.1,1.06-.08,1.83-.07,2.01.1,1.36-.92,2.57-2.27,2.7t-.03.02h-.13c-.18.02-.37,0-.55-.03l-.08-.05-.03-.02h-.17l-.05-.02c-.97-.3-1.68-1.17-1.76-2.23-.02-.23-.07-1.28.07-2.77.03-.32.08-.65.13-1.02.34-2.3,1.24-5.62,3.61-8.43,2.53-3,6.8-4.83,11.71-5.04,3.1-.13,7.8.35,13.63,3.09Z"/>
  </g>
</svg>